# xmcd
#
# Track frame offsets:
#	150
#	12504
#	26491
#	32038
#	42180
#	53593
#	58368
#	64186
#	70474
#	77172
#	81654
#	92871
#	107234
#
# Disc length: 1751 seconds
#
# Revision: 1
# Processed by: cddbd v1.5.2PL0 Copyright (c) Steve Scherf et al.
# Submitted via: audiograbber 1.83.01
#
DISCID=b706d50d
DTITLE=Willie Nelson - One Day at a Time
DYEAR=2002
DGENRE=Country
TTITLE0=Following Me Around
TTITLE1=Home Motel
TTITLE2=Darkness on the Face of the South
TTITLE3=If Only I Had Known
TTITLE4=I Don't Feel Anything
TTITLE5=In Just a Million Years
TTITLE6=Just Now Falling
TTITLE7=Undo the Wrong
TTITLE8=I've Seen All the World I Care to See
TTITLE9=Where's My House?
TTITLE10=Who Do I Know In Dallas
TTITLE11=So Much to Do
TTITLE12=Medley (Record Man - Hello Walls - One Day at a Time)
EXTD=
EXTT0=
EXTT1=
EXTT2=
EXTT3=
EXTT4=
EXTT5=
EXTT6=
EXTT7=
EXTT8=
EXTT9=
EXTT10=
EXTT11=
EXTT12=
PLAYORDER=
